<svg xmlns="http://www.w3.org/2000/svg" xmlns:xlink="http://www.w3.org/1999/xlink" viewBox="0,0,256,256" width="80px" height="80px" fill-rule="nonzero"><g fill="none" fill-rule="nonzero" stroke="none" stroke-width="1" stroke-linecap="butt" stroke-linejoin="miter" stroke-miterlimit="10" stroke-dasharray="" stroke-dashoffset="0" font-family="none" font-weight="none" font-size="none" text-anchor="none" style="mix-blend-mode: normal"><g transform="scale(3.2,3.2)"><path d="M9.2,53.5c0.4,-1 1,-2 1.7,-2.8l0.5,-0.5l-0.7,-0.3c-3.7,-1.4 -6.2,-5 -6.2,-8.9c0,-2.5 1,-4.9 2.8,-6.7c1.8,-1.8 4.2,-2.8 6.7,-2.8h52c5.2,0 9.5,4.3 9.5,9.5c0,2.5 -1,4.9 -2.8,6.7c-1,1 -2.1,1.7 -3.4,2.2l-0.7,0.3l0.5,0.5c0.7,0.8 1.3,1.8 1.7,2.8h-61.6z" fill="#fff1e8"></path><path d="M66,32c5,0 9,4 9,9c0,2.4 -0.9,4.6 -2.6,6.4c-0.9,0.9 -2,1.6 -3.2,2.1l-1.4,0.5l1,1.1c0.5,0.6 1,1.3 1.3,2h-60.2c0.4,-0.7 0.8,-1.4 1.3,-2l1,-1.1l-1.4,-0.5c-3.4,-1.4 -5.8,-4.8 -5.8,-8.5c0,-2.4 0.9,-4.6 2.6,-6.4c1.7,-1.8 4,-2.6 6.4,-2.6h52M66,31h-52c-2.8,0 -5.2,1.1 -7.1,2.9c-1.9,1.8 -2.9,4.3 -2.9,7.1c0,4.3 2.7,7.9 6.5,9.4c-0.9,1 -1.6,2.3 -2,3.6h63.1c-0.4,-1.4 -1.1,-2.6 -2,-3.6c1.4,-0.5 2.6,-1.3 3.6,-2.3c1.8,-1.8 2.9,-4.3 2.9,-7.1c-0.1,-5.5 -4.6,-10 -10.1,-10z" fill="#a16a4a"></path><path d="M18,31.5c-1.4,0 -2.9,-0.6 -3.9,-1.6c-1,-1 -1.6,-2.4 -1.6,-3.9c0,-2.5 1.7,-4.7 4.1,-5.3l0.5,-0.1l-0.2,-0.6c-0.3,-0.6 -0.4,-1.3 -0.4,-2c0,-3 2.5,-5.5 5.5,-5.5h2.5v-2.5c0,-3 2.5,-5.5 5.5,-5.5c1.5,0 3,0.6 4,1.8l0.6,0.6l0.3,-0.8c0.8,-2.1 2.9,-3.6 5.1,-3.6c2.2,0 4.4,1.4 5.2,3.6l0.3,0.8l0.5,-0.6c1,-1.1 2.5,-1.8 4,-1.8c3,0 5.5,2.5 5.5,5.5v2.5h2.5c3,0 5.5,2.5 5.5,5.5c0,0.7 -0.1,1.4 -0.4,2l-0.2,0.5l0.6,0.1c0.9,0.2 1.8,0.7 2.5,1.4c1,1 1.6,2.4 1.6,3.9c0,3 -2.5,5.5 -5.5,5.5h-44.1z" fill="#fff1e8"></path><path d="M40,3c2.1,0 4,1.3 4.7,3.3l0.6,1.5l1.1,-1.2c0.9,-1 2.2,-1.6 3.6,-1.6c2.8,0 5,2.2 5,5v2v1h1h2c2.8,0 5,2.2 5,5c0,0.6 -0.1,1.3 -0.4,1.8l-0.4,1.1l1.1,0.3c0.8,0.2 1.6,0.7 2.2,1.3c0.9,0.9 1.5,2.2 1.5,3.5c0,2.8 -2.2,5 -5,5h-44c-1.3,0 -2.6,-0.5 -3.5,-1.5c-1,-0.9 -1.5,-2.2 -1.5,-3.5c0,-2.3 1.5,-4.2 3.7,-4.8l1.1,-0.3l-0.4,-1.1c-0.3,-0.5 -0.4,-1.2 -0.4,-1.8c0,-2.8 2.2,-5 5,-5h2h1v-1v-2c0,-2.8 2.2,-5 5,-5c1.4,0 2.7,0.6 3.6,1.6l1.1,1.2l0.6,-1.5c0.7,-2 2.6,-3.3 4.7,-3.3M40,2c-2.6,0 -4.8,1.6 -5.6,3.9c-1.1,-1.2 -2.7,-1.9 -4.4,-1.9c-3.3,0 -6,2.7 -6,6c0,0.9 0,1.1 0,2c-1.2,0 -1.1,0 -2,0c-3.3,0 -6,2.7 -6,6c0,0.8 0.2,1.5 0.4,2.2c-2.6,0.7 -4.4,3 -4.4,5.8c0,1.6 0.7,3.2 1.8,4.2c1.1,1 2.6,1.8 4.2,1.8h44c3.3,0 6,-2.7 6,-6c0,-1.6 -0.7,-3.2 -1.8,-4.2c-0.7,-0.7 -1.7,-1.3 -2.7,-1.5c0.3,-0.7 0.4,-1.4 0.4,-2.2c0,-3.3 -2.7,-6 -6,-6c-0.9,0 -1.3,0 -2,0c0,-0.7 0,-1.1 0,-2c0,-3.3 -2.7,-6 -6,-6c-1.7,0 -3.3,0.7 -4.4,1.9c-0.7,-2.4 -2.9,-4 -5.5,-4z" fill="#a16a4a"></path><path d="M64,29.5c-1.9,0 -3.5,-1.6 -3.5,-3.5c0,-1.9 1.6,-3.5 3.5,-3.5c3.2,0 13.5,2.1 13.5,3.5c0,1.4 -10.3,3.5 -13.5,3.5z" fill="#ffc49c"></path><path d="M64,23c2.8,0 11.6,1.7 12.9,3c-1.3,1.3 -10.1,3 -12.9,3c-1.7,0 -3,-1.3 -3,-3c0,-1.7 1.3,-3 3,-3M64,22c-2.2,0 -4,1.8 -4,4c0,2.2 1.8,4 4,4c2.2,0 14,-1.8 14,-4c0,-2.2 -11.8,-4 -14,-4z" fill="#a16a4a"></path><path d="M16,29.5c-3.2,0 -13.5,-2.1 -13.5,-3.5c0,-1.4 10.3,-3.5 13.5,-3.5c1.9,0 3.5,1.6 3.5,3.5c0,1.9 -1.6,3.5 -3.5,3.5z" fill="#ffc49c"></path><path d="M16,23c1.7,0 3,1.3 3,3c0,1.7 -1.3,3 -3,3c-2.8,0 -11.6,-1.7 -12.9,-3c1.3,-1.3 10.1,-3 12.9,-3M16,22c-2.2,0 -14,1.8 -14,4c0,2.2 11.8,4 14,4c2.2,0 4,-1.8 4,-4c0,-2.2 -1.8,-4 -4,-4z" fill="#a16a4a"></path><path d="M10.9,49.4l1.4,0.5l-1,1.1c-0.8,0.9 -1.4,1.9 -1.7,3h60.9c-0.4,-1.1 -1,-2.1 -1.7,-3l-1,-1.1l1.4,-0.5c1.2,-0.4 2.3,-1.2 3.2,-2.1c1.7,-1.7 2.6,-4 2.6,-6.4c0,-5 -4,-9 -9,-9h-52c-2.4,0 -4.6,0.9 -6.4,2.6c-1.8,1.7 -2.6,4.1 -2.6,6.5c0,3.7 2.4,7.1 5.9,8.4z" fill="#fff1e8"></path><path d="M49,69c-0.1,0 -0.3,0 -0.4,-0.1c-0.5,-0.2 -0.7,-0.8 -0.5,-1.3c0.2,-0.5 5.4,-11.6 13.9,-11.6c0.6,0 1,0.4 1,1c0,0.6 -0.4,1 -1,1c-7.3,0 -12,10.3 -12.1,10.4c-0.2,0.4 -0.5,0.6 -0.9,0.6z" fill="#036b52"></path><path d="M66,63.5c-1.9,0 -3.5,-1.6 -3.5,-3.5v-3.5h11.5c1.9,0 3.5,1.6 3.5,3.5c0,1.9 -1.6,3.5 -3.5,3.5z" fill="#2fc18c"></path><path d="M74,57c1.7,0 3,1.3 3,3c0,1.7 -1.3,3 -3,3h-8c-1.7,0 -3,-1.3 -3,-3v-3h11M74,56h-12v4c0,2.2 1.8,4 4,4h8c2.2,0 4,-1.8 4,-4c0,-2.2 -1.8,-4 -4,-4zM31,69c-0.4,0 -0.7,-0.2 -0.9,-0.6c-0.1,-0.1 -4.8,-10.4 -12.1,-10.4c-0.6,0 -1,-0.4 -1,-1c0,-0.6 0.4,-1 1,-1c8.5,0 13.7,11.1 13.9,11.6c0.2,0.5 0,1.1 -0.5,1.3c-0.1,0.1 -0.3,0.1 -0.4,0.1z" fill="#036b52"></path><path d="M40,77.5c-5.2,0 -9.5,-4.3 -9.5,-9.5c0,-5.2 4.3,-9.5 9.5,-9.5c5.2,0 9.5,4.3 9.5,9.5c0,5.2 -4.3,9.5 -9.5,9.5z" fill="#ffeea3"></path><path d="M40,59c5,0 9,4 9,9c0,5 -4,9 -9,9c-5,0 -9,-4 -9,-9c0,-5 4,-9 9,-9M40,58c-5.5,0 -10,4.5 -10,10c0,5.5 4.5,10 10,10c5.5,0 10,-4.5 10,-10c0,-5.5 -4.5,-10 -10,-10z" fill="#805f51"></path><g><path d="M33.5,68.5c0,-0.2 0,-0.3 0,-0.5c0,-3.6 2.9,-6.5 6.5,-6.5c0.2,0 0.3,0 0.5,0c-3.7,0.3 -6.7,3.3 -7,7z" fill="#ffeea3"></path><path d="M40,61c-3.9,0 -7,3.1 -7,7c0,2.2 1,4.1 2.6,5.4c-1,-1.2 -1.6,-2.7 -1.6,-4.4c0,-3.9 3.1,-7 7,-7c1.7,0 3.2,0.6 4.4,1.6c-1.3,-1.6 -3.2,-2.6 -5.4,-2.6z" fill="#805f51"></path></g><g><path d="M40,51.5c-9,0 -15.5,-9.9 -15.5,-23.5c0,-0.5 0,-1 0,-1.5c0,-0.6 0.1,-1.1 0.1,-1.7c0.5,-2.5 2.8,-4.3 5.4,-4.3c1.4,0 2.7,0.5 3.7,1.4l0.8,0.7l0.1,-1c0.2,-2.9 2.6,-5.1 5.5,-5.1c2.9,0 5.3,2.2 5.5,5.1l0.1,1l0.8,-0.7c1,-0.9 2.3,-1.4 3.7,-1.4c2.6,0 4.8,1.8 5.4,4.3c0,0.6 0.1,1.1 0.1,1.6c0,0.5 0,1 0,1.5c-0.2,13.7 -6.7,23.6 -15.7,23.6z" fill="#ffc49c"></path><path d="M40,17c2.7,0 4.8,2 5,4.6l0.1,2.1l1.5,-1.4c0.9,-0.8 2.1,-1.3 3.3,-1.3c2.3,0 4.4,1.6 4.9,3.9c0,0.5 0.1,1.1 0.1,1.6c0,0.5 0,1 0,1.5c0,6.6 -1.6,12.6 -4.5,16.8c-2.7,4 -6.4,6.2 -10.4,6.2c-4,0 -7.7,-2.2 -10.5,-6.2c-2.9,-4.2 -4.5,-10.2 -4.5,-16.8c0,-0.5 0,-1 0,-1.5c0,-0.5 0.1,-1.1 0.1,-1.6c0.5,-2.3 2.6,-3.9 4.9,-3.9c1.2,0 2.4,0.5 3.3,1.3l1.5,1.4l0.1,-2.1c0.3,-2.6 2.4,-4.6 5.1,-4.6M40,16c-3.2,0 -5.8,2.4 -6,5.6c-1.1,-1 -2.5,-1.6 -4,-1.6c-2.9,0 -5.3,2 -5.9,4.8v0c0,0.6 -0.1,1.1 -0.1,1.7c0,0.5 0,1 0,1.5c0,14.4 7.2,24 16,24c8.8,0 16,-9.6 16,-24c0,-0.5 0,-1 0,-1.5c0,-0.6 -0.1,-1.1 -0.1,-1.7v0c-0.6,-2.8 -3,-4.8 -5.9,-4.8c-1.6,0 -3,0.6 -4,1.6c-0.2,-3.2 -2.8,-5.6 -6,-5.6z" fill="#a16a4a"></path></g><path d="M47,30c-1.65685,0 -3,1.34315 -3,3c0,1.65685 1.34315,3 3,3c1.65685,0 3,-1.34315 3,-3c0,-1.65685 -1.34315,-3 -3,-3zM33,30c-1.65685,0 -3,1.34315 -3,3c0,1.65685 1.34315,3 3,3c1.65685,0 3,-1.34315 3,-3c0,-1.65685 -1.34315,-3 -3,-3z" fill="#36404d"></path><g><path d="M6,63.5c-1.9,0 -3.5,-1.6 -3.5,-3.5c0,-1.9 1.6,-3.5 3.5,-3.5h11.5v3.5c0,1.9 -1.6,3.5 -3.5,3.5z" fill="#2fc18c"></path><path d="M17,57v3c0,1.7 -1.3,3 -3,3h-8c-1.7,0 -3,-1.3 -3,-3c0,-1.7 1.3,-3 3,-3h11M18,56h-12c-2.2,0 -4,1.8 -4,4c0,2.2 1.8,4 4,4h8c2.2,0 4,-1.8 4,-4v-4z" fill="#036b52"></path></g></g></g></svg>